#20 points,1 indices
v 7.5722310682074685 2.580952663198918
v 6.545492054909189 4.59962321925619
v 5.977773142842136 5.3165993127858755
v 0.599935671682391 7.977473108061411
v -3.876812463824637 6.997880044723112
v -5.128812750343207 6.139648179815921
v -5.387202268596725 5.914224523741579
v -7.0452047821214405 3.790130548935377
v -7.404746107867072 3.028157043158009
v -7.9211282636584475 -1.1205922678081068
v -7.530588478058006 -2.7000439207798093
v -6.341158884319851 -4.877469016181591
v 0.6388844763910785 -7.974448358715887
v 5.362281133996255 -5.936829207581083
v 6.427816962203329 -4.762685072562657
v 7.523575330260903 -2.7195246367498744
v 7.665265392493027 -2.2899140732020324
v 7.697594838980785 -2.178768848431697
v 7.833347370098433 -1.6243980360034802
v 7.90017326555705 -1.2598660143752038
f1 2 3 4 5 6 7 8 9 10 11 12 13 14 15 16 17 18 19 20
