# Layer 'AroundNRW' from 20260617
g Niedersachsen
v 10.327979761460758 53.432656044206205
v 10.35051070781345 53.43203618788199
v 10.386425825963057 53.42387129808081
v 10.528380974215745 53.37240142730405
v 10.569515408714711 53.36387475031306
v 10.601244732347896 53.371832844751225
v 10.675503785846391 53.37369343702504
v 10.709713569007057 53.368344753789756
v 10.73157271040278 53.35198928265169
v 10.734311560881874 53.33782993341809
v 10.734621609455498 53.321706781986634
v 10.739427521775923 53.30845181963198
v 10.7558089444618 53.30294819610622
v 10.77513593193857 53.30023521538039
v 10.78681482604413 53.29343999902847
v 10.807330347546765 53.27563721543731
v 10.839266381116252 53.26010842454223
v 10.930216902847018 53.22845662542221
v 11.04008100898375 53.16639334866285
v 11.068089645508891 53.15551557929828
v 11.07764978241412 53.1490043176111
v 11.089432002257906 53.14419834022595
v 11.09971560299595 53.1485390554742
v 11.109275755443068 53.15577389200086
v 11.124933711330142 53.162130063085584
v 11.133098591993658 53.167607801310425
v 11.14343387312712 53.172672036935175
v 11.156146283668674 53.173860693572536
v 11.164517859504498 53.1708633893479
v 11.17040896125997 53.165463060797975
v 11.176145043574707 53.15887430010265
v 11.184051559863171 53.15210493738474
v 11.194335145182503 53.140942549642446
v 11.201363154246065 53.140477620954826
v 11.214488975695778 53.1490043176111
v 11.22466921247467 53.15303484903554
v 11.232317322196439 53.148797359304915
v 11.239707075439664 53.14202801737148
v 11.255830107788402 53.13618842047466
v 11.262444708625164 53.13071089936983
v 11.274089919622279 53.11754371848817
v 11.274516759743126 53.11706120576073
v 11.29091839728139 53.09851619796509
v 11.327608687575228 53.072419864704216
v 11.344145128571155 53.06632185922432
v 11.365642532016624 53.06399650337448
v 11.384246046495948 53.06712290872686
v 11.416853866638718 53.080894587477076
v 11.437937854846918 53.083840181640504
v 11.460933863049203 53.07942180634653
v 11.490699484510808 53.060740734804384
v 11.509303001407748 53.05650327546075
v 11.53229902723406 53.054643078095374
v 11.581339952265838 53.04286075208939
v 11.5619096172465 53.0100204162267
v 11.551987735972181 53.00565368682266
v 11.538965284294173 53.0055504377151
v 11.530748737407865 53.00769507086781
v 11.525167690594284 53.008237764512906
v 11.515090778704533 53.0067390647357
v 11.509768113905182 53.003845261045925
v 11.506822551023811 53.00113218013879
v 11.501861605504835 52.99190784775037
v 11.500931442761686 52.98914330440322
v 11.496280563924739 52.96940290992507
v 11.496280542520736 52.96302063357956
v 11.496590623830876 52.95997197774633
v 11.497985875662419 52.95449414122576
v 11.500466342565089 52.94953318397537
v 11.502016636035636 52.94415884381473
v 11.50015629648113 52.94260868841665
v 11.498295923634254 52.941833300413066
v 11.47938236285248 52.94123917392082
v 11.4703906605682 52.94007641543925
v 11.412358030742695 52.906435102781316
v 11.408740670818021 52.905246426518175
v 11.37370405448853 52.89956208135259
v 11.312880894987275 52.88380077520512
v 11.292262001402479 52.88318070451926
v 11.284458868525292 52.88529952300364
v 11.278722783740697 52.88431765949886
v 11.272831650542834 52.88209534935531
v 11.264305048335324 52.877547930560276
v 11.258103887385925 52.8763078286141
v 11.25329797412712 52.876152737748065
v 11.250507446583374 52.87692787865616
v 11.248182011899237 52.87785811450481
v 11.246166610450985 52.87956319075708
v 11.244306277342986 52.881578785220924
v 11.242910996160191 52.88405905989122
v 11.24089562738072 52.886152090105234
v 11.237898378178855 52.88785723487571
v 11.225341016530413 52.8909837896984
v 11.22224041960785 52.89248227506215
v 11.219759960128771 52.89444608445501
v 11.216969436307322 52.89625480657101
v 11.213558784400849 52.897753330229776
v 11.16529301067727 52.903257029463845
v 11.106640252409106 52.900595615600274
v 11.098888788641302 52.90142244672861
v 11.08090539062164 52.90752027140127
v 11.050778025604593 52.91227444076984
v 11.034344928729341 52.91307551809466
v 11.014656197630925 52.911861003023425
v 11.002512254603065 52.90870896077865
v 11.000651902859888 52.90764958587412
v 10.999876742768562 52.906900129399844
v 10.99879153492424 52.90586656354397
v 10.997396279610856 52.90390296001003
v 10.995845988846206 52.90137084834201
v 10.994760783006248 52.89847695462297
v 10.993985622069115 52.895505391517176
v 10.99367556621153 52.89263737819994
v 10.993520534764556 52.88762474290486
v 10.993055451683189 52.885996991842724
v 10.991660176256996 52.883903963201725
v 10.989334738809621 52.88212114613649
v 10.970421181285749 52.873103794518684
v 10.960654339417358 52.86514567332972
v 10.94168908319145 52.85907363610558
v 10.914093852463132 52.85372493028323
v 10.898901002706912 52.848919265680024
v 10.88551680311715 52.8471622283358
v 10.842522000126287 52.84847984767279
v 10.795393096023494 52.8463352998853
v 10.762010131932579 52.83837726545599
v 10.758599488596477 52.835095817353064
v 10.760769901541838 52.82995405351399
v 10.760459830367363 52.82649158092125
v 10.757824344672198 52.82173749812655
v 10.756739128790645 52.81817169313147
v 10.757049194957622 52.81517455224043
v 10.759219601732346 52.81000686609016
v 10.759994754647158 52.80724224463463
v 10.760149769277332 52.80429652144388
v 10.760149785340966 52.80135115456833
v 10.757359233809613 52.79243669019129
v 10.756739120766934 52.78949117722783
v 10.756894166534204 52.786494136321174
v 10.757979368492919 52.7836260612026
v 10.759374627297188 52.78168814404628
v 10.763715447993299 52.77734731297217
v 10.774257436310979 52.76168931640782
v 10.778753287198116 52.75838204212737
v 10.79167240957319 52.75037236182483
v 10.793842802245855 52.74794336051407
v 10.794772993579778 52.740372955866114
v 10.796168256477097 52.73409425602148
v 10.800974156191666 52.72246696338621
v 10.80593509698947 52.71810033394064
v 10.811206081325665 52.716058979412885
v 10.821748073737398 52.716058979412885
v 10.828724402939496 52.71378534767605
v 10.836940957273484 52.71027137333047
v 10.847069542643505 52.69735231343924
v 10.884896672019838 52.651411744524275
v 10.919829948713062 52.61947579786933
v 10.928201537366423 52.614204878522095
v 10.933782587503293 52.6129129328095
v 10.937348260207221 52.613843088933976
v 10.948665386116756 52.62050919762547
v 10.952076037726432 52.62180119013386
v 10.957192016494584 52.62252479739279
v 10.963289828793938 52.622111307224735
v 10.973366728994957 52.6193207412155
v 10.976777383305677 52.61627194537491
v 10.97770755875296 52.61317135273435
v 10.976312290567279 52.61058748199523
v 10.974296911645107 52.60831373976896
v 10.969335970135907 52.60436043398821
v 10.952696158361833 52.59327583450944
v 10.950370723281473 52.591157158428594
v 10.948355335706594 52.588934990514865
v 10.947115109178773 52.58635126096576
v 10.946494989560343 52.583612375834306
v 10.945874866050882 52.567928520211105
v 10.946494985240369 52.56294175311898
v 10.949130491864368 52.55374345601498
v 10.951300894987288 52.548989139316
v 10.953678007446808 52.545475100336475
v 10.95584842978681 52.543382346484435
v 10.960809353761002 52.53968733455259
v 10.963754919950484 52.53805962768304
v 10.966390411268488 52.53619920475082
v 10.994140664864274 52.50899166843572
v 10.999566687893967 52.50258376429191
v 11.001737098508306 52.498139593195454
v 10.998946567569698 52.49705435353571
v 10.994450723542919 52.496899387042646
v 10.976002229321 52.49948311882521
v 10.971351347740375 52.49958643107157
v 10.966855499671622 52.49912136935175
v 10.962669708073427 52.49834621642446
v 10.955641718728286 52.49604668084541
v 10.95254113047922 52.49441883957239
v 10.9500606645124 52.49245517852175
v 10.948355346465974 52.490181455469006
v 10.947270136928967 52.48780429333986
v 10.94680504268927 52.4841868693923
v 10.946184926189163 52.48284328400443
v 10.945254760122024 52.4816031676061
v 10.94323936877044 52.47958766035619
v 10.941379016746026 52.47643538775632
v 10.940448840001919 52.47276635169554
v 10.9390535884919 52.462121153790385
v 11.010728794992797 52.40346834156961
v 11.015379666568244 52.40062605084865
v 11.020857379762756 52.39830073973623
v 11.02442305364631 52.39721554048351
v 11.03760053567898 52.39483832220534
v 11.06695275703835 52.37974891022871
v 11.070053339456777 52.376544925383676
v 11.072998894151972 52.372178243805706
v 11.072017038996934 52.36853501736287
v 11.070466748618994 52.36473682637883
v 11.069123163612133 52.35845817576018
v 11.066746051882935 52.355693525606995
v 11.063800491804482 52.353833133942956
v 11.047057332345913 52.35096514693172
v 11.018997023350071 52.34874298953585
v 11.008403357206033 52.34631422294288
v 11.001427030841953 52.343730315524894
v 10.999256620528055 52.342490069912635
v 10.999256630319282 52.340319775115
v 11.00003177496615 52.33814934551019
v 11.00080691669802 52.333343383173336
v 11.00173709010477 52.33044947197446
v 11.002977326816854 52.328847530306675
v 11.00592288858609 52.32768487113379
v 11.01382938274132 52.32579868149575
v 11.020702339643941 52.323163095507645
v 11.022872756473959 52.32163870624808
v 11.02395796174832 52.320424316870266
v 11.024733104902678 52.3183055447554
v 11.025198200108163 52.31598019066742
v 11.026128368834193 52.31380969477687
v 11.027523639330049 52.31225948853121
v 11.030469193953051 52.310192407496466
v 11.033724804323645 52.30647164927387
v 11.033724811488694 52.3037070450307
v 11.032019484187824 52.30138153606818
v 11.021012400613948 52.29572292938627
v 11.015689727537168 52.29169216146294
v 11.014139443529547 52.28967688440898
v 11.014759562111323 52.28740313259028
v 11.027213578398369 52.275155780611854
v 11.03341474351231 52.27112492946238
v 11.037445502177686 52.26900617512395
v 11.04209638768595 52.26347687236621
v 11.044576862206355 52.26177160803423
v 11.047987499915923 52.26120308504956
v 11.055894001661969 52.262598439187876
v 11.06069990180891 52.2614097919906
v 11.062250194666264 52.258515912955886
v 11.06178510956189 52.25086783528505
v 11.062715281892881 52.24590685395161
v 11.063645464542462 52.243684847006456
v 11.066332630048775 52.243503875755444
v 11.068503040807215 52.24502833592773
v 11.070466754909761 52.24694047374811
v 11.07263716481973 52.24993770135448
v 11.073463983915586 52.25076448687134
v 11.075634392434225 52.251281229437915
v 11.078424920573491 52.25097118374856
v 11.082920774198264 52.24714716694034
v 11.08447106381824 52.24365897155825
v 11.08524621583297 52.2400933646377
v 11.085091174555483 52.23071395442424
v 11.084316037706644 52.22782017576644
v 11.082920769456376 52.22513295128726
v 11.080905390739858 52.22283338371096
v 11.078269897707706 52.22099892191501
v 11.072017048217722 52.218750986666585
v 11.057909380404542 52.21707147952231
v 11.03744550404735 52.21146448876843
v 11.034189898722484 52.20960425266043
v 11.029073927136464 52.206116039747734
v 11.02070234156209 52.194049551708076
v 11.019307077722345 52.1899929428794
v 11.019307082955363 52.186866581007166
v 11.022717723846574 52.18198311304153
v 11.025043159991919 52.17934756946314
v 11.027213581163167 52.177539032368365
v 11.030004104508565 52.17583366603005
v 11.033259719647603 52.17443840484206
v 11.037135454493576 52.173327375793356
v 11.041631297520578 52.17283637395252
v 11.045972120774454 52.173146463746086
v 11.050467966109668 52.171699486372304
v 11.05434369657993 52.16839216839174
v 11.057909375512336 52.15800525923671
v 11.057909375966801 52.15283762163163
v 11.056514117040539 52.14885859679955
v 11.04829756235704 52.139711851749524
v 11.043336619668942 52.13550014991671
v 11.03822065911266 52.13170200825168
v 11.0138293761372 52.11893784485117
v 10.992900427166516 52.11159986567798
v 10.958122187789948 52.10483024425772
v 10.951610951811503 52.1023755545858
v 10.948820423574364 52.099740042179796
v 10.947735224293746 52.096975429319386
v 10.94851036893763 52.09485666369617
v 10.94944054836489 52.09366815809134
v 10.951765990393552 52.09222124281177
v 10.967165560706453 52.08493478516031
v 10.969335967927286 52.08353948397891
v 10.970111122910376 52.081214158677014
v 10.970731228297339 52.07707990817267
v 10.969956085275056 52.06891506162107
v 10.968405790357982 52.0645742136806
v 10.965925332134931 52.06142208827832
v 10.962979775693912 52.0598201109917
v 10.959052358786082 52.05857977754528
v 10.955538369626572 52.05795977016621
v 10.945564819422097 52.057701395109554
v 10.896213813800847 52.05852807102442
v 10.876215036435461 52.0566677412735
v 10.850325145727036 52.05025988673543
v 10.717465037815712 52.05023403446426
v 10.660827671495978 52.044730547695735
v 10.652456090974871 52.04261182237127
v 10.651060821029214 52.04028630892536
v 10.651215849099035 52.03770246910323
v 10.651991005267403 52.03501541481199
v 10.652146035619976 52.03237993735631
v 10.651215853956966 52.02979603485538
v 10.643309360679272 52.024473383343995
v 10.635092813640235 52.01775551360004
v 10.621605259754919 52.01052074303684
v 10.6150423542139 52.00881543816408
v 10.609306264550174 52.00819525940852
v 10.580005725739634 52.01031396275211
v 10.573804562027336 52.00886713286099
v 10.570083851329029 52.00679998115443
v 10.569618767980195 52.00419037896802
v 10.570083852624299 52.00214911821026
v 10.570548941777586 52.00121895753998
v 10.571169062299681 52.00034049351477
v 10.572719349534731 51.99860926558175
v 10.58620690530485 51.98716301833404
v 10.587757199480835 51.985354361381354
v 10.58853233993763 51.98375231768015
v 10.590237664976149 51.976155927492805
v 10.615352409718621 51.968404433191814
v 10.618608031915855 51.96605324329826
v 10.624705847149068 51.960291274950784
v 10.629356718531206 51.958301637914275
v 10.63478275028416 51.95765576152665
v 10.641914097783546 51.95892183139353
v 10.644549593786575 51.958689258632425
v 10.645479767013976 51.95708725406571
v 10.64439456538281 51.95481355224266
v 10.641759066146388 51.953056531619474
v 10.626876249870554 51.948922365911585
v 10.623620639250978 51.94757883370986
v 10.618142941292652 51.9434447716261
v 10.615042356918368 51.93424638029094
v 10.613026971041002 51.92453115805639
v 10.613492063111202 51.9231359446886
v 10.615042352834394 51.920707104564876
v 10.631837191799793 51.91367910657422
v 10.63524783972315 51.91156040116675
v 10.638193398447632 51.90675451858523
v 10.641138947051836 51.89156155803172
v 10.640983919537748 51.886652312567264
v 10.63989871755184 51.883551760129315
v 10.638503451563068 51.882259824024864
v 10.636333045546879 51.88065790896698
v 10.634317665571334 51.878642537329725
v 10.630907022833084 51.87365577365095
v 10.62873660886586 51.87145949188201
v 10.625791049464736 51.869934991870345
v 10.618142943677524 51.867997210766035
v 10.614422233151005 51.8661884426355
v 10.611011590164933 51.86355296544684
v 10.607600942087297 51.85885035703425
v 10.604345332049594 51.85631828516449
v 10.60062462776022 51.85456127141688
v 10.58713708200246 51.850995628630976
v 10.582176141282982 51.847739983346024
v 10.580160761515476 51.84489779025611
v 10.580160762520569 51.830273372153
v 10.577835324798372 51.80521032051627
v 10.578300413055743 51.80040441515971
v 10.578920529380719 51.799629263796724
v 10.580005730573058 51.79663197488873
v 10.58248619727012 51.7844879878621
v 10.58388146244528 51.78030222302981
v 10.585276733144733 51.77792519210929
v 10.5903926979376 51.77508296021128
v 10.595508660646413 51.77146555591535
v 10.597679075617085 51.76945024440771
v 10.602950065964109 51.76578113838088
v 10.60915123561066 51.762732202670286
v 10.616127557397947 51.76004507443081
v 10.619228136641627 51.75854638051137
v 10.622225372790655 51.75554917961016
v 10.624550815747591 51.75162182042999
v 10.628271521817679 51.741183207294306
v 10.630131867203124 51.73839260923002
v 10.638193392862307 51.73136463848803
v 10.644239531819803 51.72133937061954
v 10.646409944358544 51.71984078222497
v 10.658192177581332 51.713665528440174
v 10.661137733431714 51.71100418209293
v 10.664083281156048 51.707231701700536
v 10.668269076675836 51.6982917346163
v 10.669199258097747 51.692969129712374
v 10.66904422373996 51.66986969498661
v 10.697621287546315 51.63736518034852
v 10.648890419075412 51.619743607662286
v 10.631372109934832 51.607031211954606
v 10.629666788167476 51.603207173736806
v 10.629201689896139 51.6009849585145
v 10.630751986866859 51.59917633681808
v 10.635092813555598 51.595197326811366
v 10.640828897825047 51.58858273908893
v 10.650595735008896 51.58165799689255
v 10.652301065246062 51.58080543508297
v 10.654161416747352 51.57824745646245
v 10.655401642789833 51.574423285291964
v 10.653386263904178 51.56579334357755
v 10.649975619712192 51.56248606913808
v 10.645324745064883 51.56114253704885
v 10.641604032365818 51.562150107193084
v 10.638348419058115 51.56354539218709
v 10.624395784247406 51.57315722699846
v 10.61845299476604 51.57344145630541
v 10.610391473217764 51.5725629731618
v 10.561970660489528 51.557421836306595
v 10.557474809467909 51.556595004943134
v 10.52662397818609 51.55540643043449
v 10.514221629031656 51.55628484626251
v 10.478823273539328 51.574707516207184
v 10.431022571039609 51.59070132465016
v 10.42172081978225 51.591864131769896
v 10.414279414145879 51.589822930059654
v 10.400481799789969 51.587962489831696
v 10.385237259902672 51.587807545050225
v 10.378415973072068 51.58677406141412
v 10.374850292276838 51.58574042620495
v 10.374075146148948 51.584035118358244
v 10.374075153035147 51.58258826701661
v 10.374230173834556 51.58176134267661
v 10.374850296887422 51.580934577741296
v 10.377795846129946 51.578040611844195
v 10.37857099284919 51.57677453308054
v 10.379346144724042 51.57468171965706
v 10.379501172988554 51.57199451714058
v 10.377950885925088 51.56631019267599
v 10.375315387277864 51.56067744607559
v 10.36461835559629 51.54243554192594
v 10.357642043030433 51.536389470308364
v 10.341363963006364 51.52894801440171
v 10.338211699288019 51.52595077460359
v 10.337281525842004 51.52295357483125
v 10.335111113559066 51.52119653880203
v 10.332320593156943 51.5198013610158
v 10.323793983591003 51.51726924332901
v 10.306430701075653 51.51055129832764
v 10.301624788981027 51.507218111801826
v 10.298679237135271 51.5040917509391
v 10.297439004843046 51.49988014913293
v 10.294493436471042 51.49349795744632
v 10.291237823018115 51.49127589197747
v 10.286897007627424 51.49006156388583
v 10.282504509822001 51.48944143078152
v 10.239561397577992 51.472104026109434
v 10.232275018039589 51.47008860427778
v 10.222766549729146 51.470036878949024
v 10.218735797586774 51.470812135046046
v 10.216100300880756 51.472310773123276
v 10.214394971388908 51.47401601348004
v 10.21392988374666 51.47515289964963
v 10.213464791717291 51.47701318597748
v 10.212844679699778 51.47804678920723
v 10.209589066077891 51.47949374793555
v 10.204473098208238 51.48011385362675
v 10.194706246176272 51.47939029296886
v 10.189590285763433 51.47789176404779
v 10.18586958329548 51.47597974376689
v 10.183544141388156 51.47401601348004
v 10.181373735976488 51.4718714945474
v 10.180133503456934 51.469675270789125
v 10.179668410757468 51.46753063691778
v 10.179978473083835 51.4661612635545
v 10.181218701679251 51.46455921823403
v 10.18214887390525 51.46280216953016
v 10.181993850989725 51.461355318027266
v 10.17982344280127 51.45817724653563
v 10.172227003070331 51.44934051186146
v 10.168454628121111 51.446653401883815
v 10.16333865707076 51.44481883527077
v 10.149851113585159 51.4426485001987
v 10.14675052222915 51.440633029181754
v 10.146285437902439 51.438281799285505
v 10.146595492901676 51.43717072355797
v 10.149696077839273 51.43179635668909
v 10.09972497000612 51.433036619898175
v 10.084687130814839 51.43107295108469
v 10.078796018551207 51.42513017582283
v 10.073369991217293 51.420840994146985
v 10.069184193038806 51.420065753519516
v 10.066083607786194 51.42094426602342
v 10.045723101741034 51.43210649997443
v 10.041692338538217 51.43226149365502
v 10.039676952520502 51.43055610029262
v 10.037041458123678 51.42755892024318
v 10.032080518385923 51.424199932222926
v 10.017662793744849 51.41949737040431
v 10.011461627270178 51.416758590002445
v 10.000092804288581 51.408231868270875
v 9.949243202069153 51.38179947980166
v 9.914619992345504 51.397664135088846
v 9.905783323571427 51.40368445647674
v 9.905628294664723 51.40513140712103
v 9.905318229981953 51.41128081629682
v 9.904233029850296 51.41696528630441
v 9.901597522604863 51.41898054609689
v 9.897566765786046 51.41908397335768
v 9.894156115798452 51.41789534388569
v 9.891520628281675 51.41634519796561
v 9.8849577226697 51.411177548835596
v 9.88232221497555 51.41089321204544
v 9.869764841855385 51.41089321204544
v 9.865579053410443 51.410143939447266
v 9.86278852320806 51.408696956732335
v 9.861858353917778 51.40673334319397
v 9.861703327131927 51.40440793064188
v 9.862788527171588 51.401539824566626
v 9.863873736494181 51.399679535322846
v 9.865424021768154 51.39763820260844
v 9.867129347950586 51.395984622569
v 9.875500932825767 51.38471919775279
v 9.875500923999677 51.38172184402933
v 9.873175485164957 51.378879643276754
v 9.866044140079715 51.37335030205028
v 9.860928171010341 51.37205835072501
v 9.85643232261861 51.372110053628965
v 9.852401563322344 51.37428049282016
v 9.849145953950197 51.376502656704
v 9.844495068316773 51.38151517992
v 9.838914011346581 51.39045517615344
v 9.837208690257462 51.39360745644836
v 9.832816201622066 51.39758665009595
v 9.825994905139355 51.400893845672925
v 9.80801151434106 51.40725013950284
v 9.800725135690929 51.40885209058372
v 9.796384315858713 51.4083870018032
v 9.79591922690903 51.40673334319397
v 9.796384311895311 51.40430451009475
v 9.797314491542647 51.40223751508815
v 9.798399687192951 51.400583745214746
v 9.801655312652553 51.39719906931008
v 9.79870975580248 51.39453773041831
v 9.79204349451578 51.3903519181975
v 9.767962270914518 51.38564927899118
v 9.75586998959955 51.37916393985093
v 9.713650347939213 51.36379025526687
v 9.712565136430642 51.36260160368126
v 9.712565142289556 51.36110306810243
v 9.712720164212811 51.358829199064935
v 9.715355665114052 51.354333384402715
v 9.718921344852037 51.35069028419433
v 9.742847523719208 51.33464462686106
v 9.750754026814526 51.331337460354575
v 9.75447473001223 51.33087237440293
v 9.756955190647584 51.332138322477746
v 9.759435660496294 51.334282922702
v 9.76997765321273 51.34056160144438
v 9.775248656631366 51.34187945570889
v 9.779486123619218 51.34187945570889
v 9.7816565224872 51.340871619803096
v 9.783206818619604 51.33991564011785
v 9.78475711858083 51.33870134399916
v 9.784757116278607 51.33753859322084
v 9.78429203090421 51.335884982888295
v 9.782741737555448 51.33384375590461
v 9.77995120128091 51.33138899780873
v 9.77865929153296 51.3307430625613
v 9.77757408599982 51.32999374249268
v 9.776178826045049 51.32916696327457
v 9.774473504420941 51.32777172159912
v 9.77338829757133 51.32668648749326
v 9.772768182668447 51.32529126104251
v 9.772613158465168 51.3234309724274
v 9.772923206614271 51.32107955316458
v 9.77307824531352 51.31903845912517
v 9.769512563332487 51.31487840075407
v 9.7620711657317 51.30932328994851
v 9.7335457676815 51.29325182000599
v 9.725639277633997 51.29066805457478
v 9.722021925077334 51.290461317131
v 9.711479932338554 51.29152069236641
v 9.682644488177294 51.31495601366963
v 9.669466997197848 51.31955521180627
v 9.662283972257171 51.318935077496725
v 9.655927771063713 51.31950352086873
v 9.58626793388141 51.33945053660592
v 9.56936974039053 51.34234440801327
v 9.541257766875281 51.35831251322137
v 9.535521684166255 51.36373855426018
v 9.534746535201748 51.3665807213484
v 9.538157177581168 51.366218966293566
v 9.55350507759694 51.361929807426186
v 9.562548455018261 51.36063792117352
v 9.567044309075891 51.360612149125096
v 9.570920034048777 51.36138718618877
v 9.572160272396086 51.36399690321504
v 9.571230092799237 51.368389349080786
v 9.564563839391726 51.3767610202061
v 9.562858516950614 51.381360221013885
v 9.563633665539074 51.38446082517434
v 9.57200524675997 51.38970597123642
v 9.574640745797366 51.39195390585728
v 9.576966183333584 51.39526117533741
v 9.578981566519316 51.39758665009595
v 9.582082151758366 51.39882688182778
v 9.585957883992686 51.39856849314722
v 9.592934198299863 51.396966458669425
v 9.596809932410501 51.39701816725997
v 9.604251341326814 51.39882688182778
v 9.632518345481554 51.40094555516093
v 9.636239043377826 51.4037360103787
v 9.638564483086286 51.408696956732335
v 9.63468875504848 51.43401846070936
v 9.635308870868549 51.437739151154325
v 9.63654910961093 51.44166662184558
v 9.637014192847136 51.447402639366814
v 9.635308872649508 51.45127840100669
v 9.630968046385902 51.455386587310116
v 9.630037877918284 51.45840976396505
v 9.630968047123162 51.46073510771523
v 9.636549102252586 51.465024266502056
v 9.63871951179508 51.46802147561367
v 9.638254431762562 51.470295349441564
v 9.63561892995905 51.47205230031781
v 9.627867464757156 51.47417103597096
v 9.623061552463227 51.47732323519317
v 9.616395293142311 51.483782795163975
v 9.596809927043791 51.511584743112515
v 9.594794551824528 51.518199402502034
v 9.596809929429135 51.52057647608281
v 9.60595665739699 51.52109322094745
v 9.60967736732664 51.521971814991794
v 9.612519568981545 51.523677119419496
v 9.614534942977437 51.52739772912657
v 9.615620152769532 51.53305636907713
v 9.61593021174572 51.54398593114168
v 9.617170446800843 51.54982538907627
v 9.61965091366861 51.5524866878922
v 9.623061553255742 51.55225407310727
v 9.629727818188115 51.549566983397
v 9.632518346049876 51.54884351161007
v 9.636549102611383 51.54843003321284
v 9.641044956168276 51.54858510706298
v 9.644765659462896 51.550032051304015
v 9.64507571579239 51.55168566864067
v 9.635463896511567 51.562150107193084
v 9.63391360427763 51.566000020539086
v 9.633913610530328 51.56889398705259
v 9.635618927892306 51.57085760943013
v 9.63778934448556 51.57214960730897
v 9.63980472712778 51.572614722117734
v 9.641820097353822 51.57251122421783
v 9.643990509645192 51.57191697209671
v 9.668381791162124 51.560315691949455
v 9.67132734809775 51.559282178951165
v 9.677373490133597 51.5607807821714
v 9.686055133966555 51.57194292466888
v 9.666469755474372 51.58496524202146
v 9.659803500985891 51.595145572629
v 9.65716799851095 51.60393050862332
v 9.654377472559926 51.608167990931655
v 9.650811806006233 51.611216995204835
v 9.630968054957915 51.6172114537229
v 9.627402373755599 51.6202602687985
v 9.625386995518651 51.6240326819552
v 9.623371616109251 51.629458726183394
v 9.620891143610109 51.63111230571238
v 9.61624026507131 51.63064722545637
v 9.60502648848813 51.62746925513103
v 9.592624136099873 51.62573798251131
v 9.5853377666819 51.62599647625087
v 9.577121207705305 51.62708159026303
v 9.564718864317502 51.630388882707095
v 9.560223019636563 51.63379959408649
v 9.556192259411079 51.63821795818274
v 9.553039996040443 51.64000077952918
v 9.549319290945027 51.6402591334199
v 9.545753618435626 51.63930313168774
v 9.542653031426337 51.6377786669378
v 9.537537063913284 51.63416131082989
v 9.535211618331841 51.632145838241904
v 9.532576122852994 51.63028551441487
v 9.527925244998677 51.628786914133855
v 9.520948927373219 51.62808930138946
v 9.507771439672323 51.6283994033554
v 9.499554888109774 51.63010473730494
v 9.494387241670442 51.63209423187394
v 9.492061805361274 51.63426468091931
v 9.490821562285713 51.63679671573403
v 9.490356484717735 51.63963905330779
v 9.49020145271039 51.642636253495425
v 9.490511510254231 51.646021034754305
v 9.490356480709487 51.64930249033685
v 9.486945832632026 51.65328152732017
v 9.48291506776975 51.65467675636504
v 9.466792024716955 51.65501270117407
v 9.448498564703709 51.64403141584628
v 9.440075313606298 51.649044125957055
v 9.393721550095952 51.64005238772795
v 9.378787062890112 51.6403883104776
v 9.376151559260666 51.64211938411062
v 9.37444623705677 51.64439314919936
v 9.373050976006178 51.64726123223388
v 9.372430865422897 51.65098202250856
v 9.372430860526954 51.65625294873811
v 9.373206007323695 51.66144642362592
v 9.37475630298395 51.66501213978739
v 9.37692671689377 51.66744098233049
v 9.379717242901782 51.669146302463545
v 9.386383493066239 51.67178165230483
v 9.388760610954694 51.67415879624843
v 9.390000848655346 51.67775036829286
v 9.38767541124951 51.68490756434747
v 9.387210324647134 51.6894034343433
v 9.387985467737762 51.69302075020172
v 9.389845816952135 51.69508776959642
v 9.393101432865535 51.69756824955636
v 9.393566525607973 51.70061722710571
v 9.392946410481986 51.70526812874768
v 9.39000084562143 51.717256957395534
v 9.389535759395851 51.72392324303265
v 9.389845823177156 51.72940100824556
v 9.391086048551887 51.73384505487938
v 9.392326286760841 51.73534373798956
v 9.394186641115859 51.73671319807976
v 9.3963570452069 51.73787582987552
v 9.399302609783156 51.74025305618457
v 9.401317986758864 51.74268178360997
v 9.403023309042101 51.74542064657528
v 9.404418570755439 51.749761434380154
v 9.40534875162955 51.752138631879404
v 9.406588979773876 51.753223736444184
v 9.409534538545007 51.754722394297744
v 9.422557000823367 51.75963167298463
v 9.428138051881062 51.762732202670286
v 9.433719110717679 51.76720226817783
v 9.43666466198098 51.77045781962393
v 9.44601810328617 51.785082339100086
v 9.451909219429837 51.797768942939165
v 9.453149450770685 51.80577874766736
v 9.452064242699745 51.81608816084787
v 9.452839389011233 51.82097157067493
v 9.454544712975716 51.82407217968664
v 9.461676061300395 51.82861971418707
v 9.462141144140013 51.83011825803833
v 9.460900913953342 51.83166862148378
v 9.457645298483031 51.833063879657935
v 9.449428749904579 51.83505347613723
v 9.44415774751812 51.83523426405823
v 9.440540398277102 51.838489880791414
v 9.440075309197224 51.84076362870448
v 9.44162560256494 51.84303740011653
v 9.450979041720409 51.85053055585863
v 9.456095009350564 51.85574988404483
v 9.458420441790453 51.859263788046405
v 9.461210977263908 51.865361711876226
v 9.457955350811469 51.867428622883324
v 9.455164830001221 51.868203856506604
v 9.449738805990938 51.86706699424135
v 9.443382605038744 51.86499993008943
v 9.433098992847809 51.862571107600694
v 9.410309680672606 51.860348950313835
v 9.365609573583148 51.86148593435889
v 9.360183549806658 51.86096917962533
v 9.342510210423717 51.85624079718092
v 9.332123239555957 51.85476790452163
v 9.321994665717273 51.85626662650573
v 9.33615400508018 51.882259824024864
v 9.3383244122638 51.89342188954223
v 9.336464065316983 51.90091504258768
v 9.334603713950068 51.90577262396495
v 9.333208453464668 51.908098113299125
v 9.330727984530526 51.91125037135017
v 9.325870393683509 51.91610786873289
v 9.30215091692323 51.92323929352195
v 9.288973424845059 51.92373020114678
v 9.263186881877196 51.92112049560396
v 9.257295768643942 51.92132719141627
v 9.255280383753467 51.9223606734054
v 9.257760859349773 51.92422110987269
v 9.264892209918917 51.92840695400935
v 9.26923302877586 51.93145583855128
v 9.273108762847496 51.93548663249185
v 9.274710725382063 51.93750190071996
v 9.285872841760094 51.96496802703552
v 9.28726810343118 51.97047153406462
v 9.28602786457464 51.97277108540978
v 9.247528920550899 51.983648940215566
v 9.243343131309404 51.98375231768015
v 9.238227169202824 51.983390653400825
v 9.234041375896426 51.98258963729278
v 9.23016564323199 51.98116852229093
v 9.22784020411857 51.97987663607609
v 9.225979851501195 51.978274632615296
v 9.22427453263046 51.97625930140583
v 9.223654407811901 51.97496728764001
v 9.223344351653253 51.97352037913621
v 9.223654415306045 51.97140172018286
v 9.21915856322755 51.9703164773266
v 9.209960163199158 51.97160846355288
v 9.184535357669873 51.97935991505869
v 9.175388624200286 51.98318389886359
v 9.171047806960225 51.985974475121516
v 9.172598098612585 51.98716301833404
v 9.174768511118534 51.98845494772098
v 9.176318799549984 51.9900051791103
v 9.177093952371063 51.991503887574986
v 9.176938916305692 51.99393257529684
v 9.176628858625094 51.99563792028468
v 9.176783887882385 51.99672313253164
v 9.17740400452643 51.99767912002698
v 9.178799265481203 51.99860926558175
v 9.184845416024295 52.00096064990092
v 9.190426464668615 52.00406114502454
v 9.193216998072566 52.00623165885962
v 9.196007520171657 52.00917714464949
v 9.197092726048911 52.01093414754349
v 9.197867874928837 52.01315626896362
v 9.198798053752753 52.01695452776759
v 9.19786786763299 52.01935733745278
v 9.1856205606634 52.03728917038591
v 9.177404010233582 52.05325720425231
v 9.17662885959934 52.05677115344114
v 9.176938913806842 52.05881230035488
v 9.177714058291972 52.0603884167214
v 9.18825605568221 52.07217071541425
v 9.189806344040365 52.07496118039872
v 9.189496289603197 52.079017823381555
v 9.188256060164756 52.08503821080773
v 9.177093946173077 52.09485666369617
v 9.149292023702602 52.10219470196275
v 9.140920440696034 52.10767237807519
v 9.140145294671784 52.1101786899447
v 9.140300324752713 52.11247830991313
v 9.141695589095551 52.11547554774717
v 9.145106234229283 52.121159975745535
v 9.14634646540185 52.12588830995936
v 9.142935829620217 52.128989023626445
v 9.135494423854691 52.131908747572204
v 9.06397423693035 52.13803233371096
v 9.043768754079636 52.136404553843434
v 9.030901323848457 52.137102217068225
v 9.015553418713 52.13586191103299
v 9.003616167243226 52.133407339266476
v 8.998810257054076 52.13320059851188
v 8.996484820990307 52.13410499281075
v 8.997414987281678 52.13712792296813
v 9.001600780085377 52.142553973999625
v 9.003461132935442 52.144362687978095
v 9.005786578961382 52.14699827424022
v 9.007336870157722 52.14947870788267
v 9.007801957863537 52.152579290026836
v 9.007491898200362 52.155938252043256
v 9.00594160463619 52.161028367387225
v 9.004236285841873 52.16446490196933
v 8.994314410438651 52.1779524422918
v 8.988061562303152 52.188494428274154
v 9.019429151963223 52.194075421183385
v 9.041753368643654 52.19288683959131
v 9.04593916129159 52.194075421183385
v 9.047644488175653 52.196194220162084
v 9.04578412769553 52.20443647451335
v 9.042838572594341 52.21025009646434
v 9.040823199371983 52.21301490688536
v 9.039117868766068 52.21603784669524
v 9.038497759045685 52.21862178128158
v 9.041908404135764 52.2237894300574
v 9.04857465642727 52.22763921788922
v 9.070485464627188 52.236915152029994
v 9.072655879659507 52.23918899550565
v 9.070795525198315 52.24024830115715
v 9.066299675533712 52.24146270625278
v 9.044078813273329 52.244666704955215
v 9.010902536176095 52.25409753751788
v 8.992712437019518 52.256862285333476
v 8.989611846881717 52.258283331592835
v 8.986666292398251 52.260479612325746
v 8.983255645292447 52.264975439687944
v 8.982480500427775 52.26792100585578
v 8.982790557051239 52.27011722852764
v 8.984960972748189 52.273657142074136
v 8.986976354651713 52.27947075753313
v 8.989146760510303 52.288384877186566
v 8.993332553908633 52.31603180217812
v 8.995089551066549 52.32249134004385
v 9.00113569789311 52.33287837170153
v 9.004236280619896 52.33654734603561
v 9.007801957520645 52.33923455755203
v 9.01260785989172 52.34060390628677
v 9.018033892159577 52.34106909149064
v 9.041133256229735 52.33923455755203
v 9.049194777375636 52.33980297427426
v 9.057618034128994 52.344324631854754
v 9.062889035331613 52.34615920958026
v 9.073896111944585 52.34874298953585
v 9.077926877845469 52.352412079917464
v 9.095445186463644 52.37571812372476
v 9.12836307196666 52.408455114894295
v 9.110844764099022 52.44207067121829
v 9.109759554348177 52.446256390820565
v 9.108984404497738 52.451527350645435
v 9.111309852309729 52.45338781305562
v 9.117355995056954 52.456230025874895
v 9.121076697137289 52.457573599271065
v 9.126037631552297 52.46062245464391
v 9.130223420438272 52.4645498318633
v 9.134564238869848 52.47183619028329
v 9.13409915047735 52.47488509412151
v 9.131618682866353 52.47674544784672
v 9.12371218837644 52.47767563084498
v 9.119836460069159 52.47850251594232
v 9.115960731961133 52.48000118473601
v 9.112705116945405 52.4816031676061
v 9.110534700417272 52.48297249265116
v 9.096685420333971 52.49545241056293
v 9.090949329186616 52.497441848769654
v 9.085678339025439 52.49819124898375
v 9.081182485882902 52.49757106634161
v 9.025630326662148 52.47956191323094
v 8.999120309770358 52.46276697755865
v 8.993952666348324 52.45842615038105
v 8.984030796409751 52.44475780391689
v 8.969303014589373 52.4163357894537
v 8.966667519272088 52.41313188086378
v 8.963876984599787 52.410625476817664
v 8.96124148692938 52.40907519361753
v 8.894372188180052 52.399954364928355
v 8.88801598934219 52.39757727295213
v 8.859128858206681 52.39104013245611
v 8.826727740358663 52.38879229142566
v 8.723994993083412 52.39561356738907
v 8.712781201984857 52.397396328173954
v 8.711075877052265 52.3986106855871
v 8.708595410531009 52.40093615702726
v 8.707510202860478 52.403364919248546
v 8.706735056973152 52.40729233484371
v 8.706580034936822 52.412150032398095
v 8.707200149553653 52.417653527426246
v 8.710300735531314 52.42878980726448
v 8.710610793139958 52.43209707460305
v 8.709525590885802 52.43460341832769
v 8.706269970637681 52.439254233570814
v 8.704719682302175 52.442535764532806
v 8.704254588756028 52.446773136556885
v 8.70440962563732 52.451579152027
v 8.706735058617005 52.46106168683411
v 8.707200150330548 52.464704931635765
v 8.706580031258081 52.47111278656362
v 8.703634472930371 52.48015613884059
v 8.67619428871286 52.51100698514854
v 8.667512645763082 52.514934356494386
v 8.659606155402583 52.519843673463946
v 8.642811313296717 52.524055272273685
v 8.636610144407108 52.524184506138425
v 8.632114288398054 52.52392603848811
v 8.582608266029395 52.509120736058385
v 8.566485219101272 52.50713118783393
v 8.516979205162032 52.508113162808606
v 8.496670362897794 52.506511135953104
v 8.49186445705141 52.50322971165845
v 8.48111575205631 52.49803612464832
v 8.472124053269317 52.494573804246016
v 8.465767859293905 52.49131831393754
v 8.463907501005032 52.48976791117643
v 8.462667273441077 52.488114370101485
v 8.461737093927564 52.48615061062602
v 8.453985627289857 52.46150091993553
v 8.452125275395307 52.45798692365785
v 8.448094511777024 52.454627921105626
v 8.441118202368937 52.451062394569405
v 8.423703239924498 52.44599801842491
v 8.366910843832088 52.44139885412484
v 8.358384226030308 52.44281987536204
v 8.350632761988251 52.445326188882795
v 8.346602002901054 52.44599801842491
v 8.32381269789825 52.44594637537755
v 8.301436804080922 52.451114038863714
v 8.32133223065419 52.41023798342841
v 8.32644819079411 52.40486352772579
v 8.333889601620845 52.398352371190924
v 8.398898556578615 52.379593872531295
v 8.427734003094603 52.366778074940335
v 8.435072056141765 52.361455398310405
v 8.440963170483762 52.353755624513646
v 8.449644805697126 52.338097571761516
v 8.456001012678243 52.32130283064983
v 8.460186800105093 52.304197875754106
v 8.460961946020715 52.28657620566299
v 8.45879153576508 52.25009264498332
v 8.460961952022396 52.214332645637086
v 8.463907507120561 52.20477248058646
v 8.465612830730176 52.203790648168926
v 8.486851836338218 52.195057209266494
v 8.497600535120776 52.18919194648677
v 8.49837568436136 52.186840712398116
v 8.497135455928053 52.18343015948591
v 8.491864452355534 52.17619533801703
v 8.48623172505135 52.17004589942207
v 8.48096072960599 52.16529167245386
v 8.475844766265102 52.16167437903679
v 8.466077918573497 52.15671341660916
v 8.426028679627514 52.14097788625401
v 8.421687859194472 52.137851451259394
v 8.418277215885237 52.13371737239894
v 8.410215690199495 52.118782838829645
v 8.407890247224849 52.115604691327256
v 8.40587487289002 52.114235365812625
v 8.400758900330311 52.11242659052838
v 8.393627561206415 52.11126400471235
v 8.266865264579662 52.133613923478165
v 8.234722532860522 52.116147440007495
v 8.217669300174226 52.1033315371661
v 8.211468129354863 52.09666529213891
v 8.19901411146401 52.08953398337121
v 8.181030711126917 52.083074385581625
v 8.110440710436999 52.06653802803878
v 8.074577268535485 52.07470294178981
v 8.038248731968618 52.070723786960244
v 8.02290082959767 52.066150371901244
v 7.97944095224826 52.04038971329281
v 7.973859897072924 52.03845182962368
v 7.969829137032433 52.03852938223992
v 7.965178253405329 52.041216479982026
v 7.947814972587647 52.04728846250794
v 7.919702994446006 52.05310208853021
v 7.914742062299392 52.05465246732038
v 7.912416622785329 52.056021886395776
v 7.904200065335837 52.07188646858171
v 7.90016930658879 52.07816521377153
v 7.891642693778305 52.089766539378516
v 7.893192990826474 52.09516679828621
v 7.904665152595757 52.10296983047356
v 7.922183463983046 52.11154814650324
v 7.947194861496102 52.11870541422552
v 7.966573518107016 52.12146999130825
v 7.979440952469122 52.121883450571595
v 7.9901896459326585 52.123226963538904
v 7.994375437623147 52.127826192011526
v 7.99685590774787 52.13348476913755
v 7.99716597094544 52.13841996186643
v 8.003522172132055 52.15087396433451
v 8.013909129161059 52.16405136115307
v 8.017319778270647 52.17004589942207
v 8.01747480549879 52.17412831318941
v 8.01375410367148 52.175962845725095
v 8.008483104624457 52.17771979133095
v 7.990499709840728 52.18175061450311
v 7.978200715457785 52.18224147988439
v 7.960217315055507 52.18004521482433
v 7.947504916045564 52.17981271837766
v 7.942543980546367 52.18146638028564
v 7.938668251351819 52.184101949790985
v 7.93680789801005 52.190458114788946
v 7.934327426615303 52.1948505661774
v 7.9330871932584905 52.195264009339596
v 7.924043816958425 52.196400864541395
v 7.914742062799667 52.196710988269075
v 7.907765740171298 52.198312883214996
v 7.903579951716121 52.20037998344343
v 7.900634397370182 52.20492754842856
v 7.900789424313703 52.207873074698774
v 7.904200063973421 52.21146448876843
v 7.917377553144007 52.22006860378441
v 7.9232686708425115 52.226424890983424
v 7.925439084096252 52.23035234756788
v 7.925594113167625 52.2334012487401
v 7.924198848300349 52.236191761221725
v 7.91861778786611 52.24285793195433
v 7.916447384345812 52.24704382031934
v 7.9161373235884 52.249162514414515
v 7.916292355122414 52.25068701480023
v 7.920013057629198 52.2542785177071
v 7.938203161760631 52.26585403944737
v 7.94424930145481 52.27135752476398
v 7.946264686455754 52.27427729954401
v 7.946419710531369 52.276990235111704
v 7.94083866029298 52.283269000455405
v 7.934792516940359 52.28861749124115
v 7.932777136475697 52.29117547825421
v 7.931381868604831 52.29386258965383
v 7.929211459560878 52.29990875295184
v 7.929676545844615 52.303009311253675
v 7.932157019834378 52.30533483792362
v 7.935877717279233 52.30636827401638
v 7.966418492652447 52.3091071861927
v 7.969984160017172 52.31003726349457
v 7.973549835735516 52.31210434302846
v 7.972774693542737 52.3146365701643
v 7.9704492527629025 52.31753042391323
v 7.960682410741743 52.32667721738889
v 7.942233921291699 52.34760610994586
v 7.928746372606885 52.359879270107356
v 7.920013056631294 52.36491774338336
v 7.911021354563144 52.37132556819893
v 7.905750356608206 52.37726832062556
v 7.899704220064383 52.378456985175355
v 7.894898312736959 52.37861202204441
v 7.829269241233362 52.36272148724171
v 7.822602980712252 52.36326407667192
v 7.816195101288932 52.36512439378381
v 7.805188021783459 52.37370268064249
v 7.801777380082927 52.37579564114751
v 7.7341329326936465 52.40191811059938
v 7.709793332158933 52.4073441254245
v 7.70560753368272 52.40997949795188
v 7.702920366039606 52.413338578122136
v 7.694393749678638 52.447754988321755
v 7.692068309705636 52.453284366395714
v 7.688657666939491 52.4579352776877
v 7.6854020515653785 52.4597956394083
v 7.680596142442669 52.46201770286424
v 7.609075965665758 52.47555701746135
v 7.605510289836106 52.475608667731656
v 7.601169467206034 52.474471736734664
v 7.598844028031244 52.47292145749
v 7.594038115805004 52.468322179413676
v 7.581894157550536 52.436386192620084
v 7.583134390947875 52.43282050206243
v 7.586234978138252 52.42754953644725
v 7.593883092405083 52.42517244945724
v 7.6007043778454895 52.41964301964354
v 7.602564728997084 52.41721422821041
v 7.602099642413655 52.415405561772225
v 7.595123326302733 52.41395867110438
v 7.590575802719158 52.41031551343836
v 7.587010126392642 52.40476026166482
v 7.5808089578341145 52.3904201063527
v 7.575692984088376 52.38292689407556
v 7.574762808434098 52.383004414124514
v 7.573057491542777 52.38207433232364
v 7.570577019082894 52.380162240026614
v 7.565771110465088 52.37514961118142
v 7.56158531763441 52.37184228858124
v 7.560500117879173 52.37158400669071
v 7.558484737049839 52.37142897494091
v 7.539726188363125 52.37339261416984
v 7.533318313337095 52.373496021915926
v 7.519055613672955 52.37184228858124
v 7.513629592968543 52.370033694273225
v 7.4673791861210095 52.346391729666465
v 7.4164778952579775 52.31396468464561
v 7.409036495392511 52.310554149155784
v 7.3983394737816575 52.30732437940513
v 7.3726046076685865 52.30393951888578
v 7.368108756828814 52.302647582363605
v 7.363251176155454 52.30058059428453
v 7.348523391276607 52.29210563441346
v 7.3005676641659845 52.27179683728023
v 7.259174842645198 52.266164106663055
v 7.121508822355017 52.26265003782351
v 7.115772737731526 52.25975614204388
v 7.108486363605797 52.255001969503965
v 7.09437869380327 52.24869737223038
v 7.05308922600648 52.23792285375948
v 7.026682571134014 52.238620532378384
v 7.026600153794354 52.23862272781928
v 7.020738970198287 52.24526168702624
v 7.011850624388976 52.26662991409753
v 7.012470740976935 52.284949182932195
v 7.019705445817494 52.300038791653485
v 7.039755899390627 52.32861581375786
v 7.048230835431762 52.36507355494234
v 7.034174847112106 52.39078261190359
v 6.973300008667111 52.45137320236671
v 6.966995485345891 52.449564558537794
v 6.960794310021905 52.442846559824126
v 6.951492552515396 52.437472219981444
v 6.926481160112023 52.43297636341114
v 6.900229534555273 52.43191704216027
v 6.872014200231184 52.43473338234966
v 6.820337772092251 52.44682572162805
v 6.741169470470761 52.45367272331331
v 6.714814497203658 52.46155350866315
v 6.6950740978132925 52.475609452690286
v 6.688976277077371 52.490518069188376
v 6.687529334278904 52.508139698492506
v 6.684015339356873 52.525993945588915
v 6.671716352265022 52.54167781807447
v 6.688252805354985 52.542582061297544
v 6.74375329698093 52.55971284873495
v 6.710990440861323 52.576636916886166
v 6.703962446002747 52.583070634647
v 6.703652380670628 52.591390419094346
v 6.7081999143477775 52.599684614192995
v 6.710163613605673 52.60865038527808
v 6.701792034751804 52.619114941781106
v 6.719083151714715 52.62675903392189
v 6.737035367335348 52.63469547288794
v 6.770521679135178 52.64102554678669
v 6.865399623028887 52.64195598479561
v 6.918419632825219 52.63218894846441
v 6.967718953539469 52.636659047944065
v 6.982808478770053 52.63278344797187
v 7.0184652161531265 52.62598796667085
v 7.0366553138319015 52.647381893931104
v 7.043993370636288 52.6826252902142
v 7.053295125757195 52.790577304718155
v 7.061976769028028 52.82401199673579
v 7.07215075908986 52.841316553618924
v 7.079856813539448 52.85442355072727
v 7.161918989198013 52.93263586079429
v 7.183623092363062 52.96612220816541
v 7.192821491774796 52.99800646837913
v 7.194371792725181 53.03384421449988
v 7.185070031723164 53.10544187613633
v 7.181349316107955 53.11417497204959
v 7.176491738925495 53.11939441107124
v 7.17266768817094 53.12575070449363
v 7.17194420606186 53.13771358516139
v 7.1744246806391985 53.1457752250411
v 7.18858401662812 53.16778926100711
v 7.195405321722442 53.18499779638355
v 7.198505903421608 53.20057816492889
v 7.197472367392358 53.216623573834696
v 7.194590682542959 53.24502172900479
v 7.204437690353904 53.248276986340464
v 7.215830932132231 53.25560142839906
v 7.224619987014186 53.262925505828896
v 7.233571802084407 53.27362686496441
v 7.236989785221729 53.28554931172328
v 7.229502800545888 53.296576248489394
v 7.254730662220773 53.319525409882075
v 7.268321168557403 53.32367599585629
v 7.291514520847584 53.323920020819926
v 7.31316166093413 53.32050212191287
v 7.347666865125073 53.30735915333874
v 7.366547076712518 53.30280192245056
v 7.342539908504056 53.32404203341278
v 7.3029077565044815 53.332749888204205
v 7.0752059260289695 53.33759188225449
v 7.038259309123514 53.348578158543425
v 7.023610874406895 53.37641024811264
v 7.0232853484058415 53.450506838989
v 7.027679875515981 53.46735245507823
v 7.047048377176887 53.4977074980262
v 7.051442899052748 53.5125998967108
v 7.059743684481027 53.521714558146975
v 7.079356309690796 53.521551713773746
v 7.119639524275495 53.51630289448904
v 7.125010618340486 53.52435953553437
v 7.134532105855548 53.52741135487707
v 7.141774938036474 53.53717686056904
v 7.13998457330107 53.54979079718438
v 7.131114137249554 53.5569523602148
v 7.101898641089768 53.56574140241589
v 7.0888777919219566 53.573716397013314
v 7.086761921148304 53.586859550053674
v 7.100922067844146 53.59788640466503
v 7.133148642027309 53.611273645053224
v 7.169444214099118 53.63548424013918
v 7.1889754497151594 53.643499941010994
v 7.226084836143038 53.66649004723182
v 7.305023639424039 53.68480061519732
v 7.458832227839689 53.695135822973185
v 7.469574411304986 53.690741216585614
v 7.480235214439071 53.682033470476895
v 7.503916853515276 53.67865616001991
v 7.651377802934829 53.696966911609074
v 7.95142662832612 53.72190988748722
v 8.03142338309972 53.708075418036536
v 8.031423363366265 53.700628824127264
v 8.02491296685103 53.672552954483706
v 8.052907752235315 53.636297984403285
v 8.09408612777376 53.604722302245655
v 8.127614778304325 53.590765666017916
v 8.127614788121907 53.584621610468545
v 8.119151241338074 53.57192622522866
v 8.134613485551535 53.567450393009416
v 8.156748885217109 53.563665948793165
v 8.167979370067146 53.55320883387372
v 8.164886924638855 53.53522384726773
v 8.155446813449286 53.526027773475235
v 8.133799681026957 53.51630289448904
v 8.115733267051988 53.51072822703247
v 8.076345244911293 53.50861232425091
v 8.058767118696034 53.502020508305286
v 8.076996281208684 53.468695243934505
v 8.086192251390393 53.45612209663954
v 8.099782754503646 53.44741455544122
v 8.112478062726773 53.451076591622716
v 8.123871282903664 53.45400614275124
v 8.140635621782398 53.45359948592665
v 8.152354371913091 53.44977461775425
v 8.17139733897327 53.436590993786226
v 8.178558781734168 53.43374245351705
v 8.186696805635185 53.42951072697873
v 8.194834828833862 53.420111346626605
v 8.205332886317386 53.41071209268383
v 8.219737175991721 53.40643953511079
v 8.236501497830188 53.406724348416866
v 8.248708523662959 53.40839254877894
v 8.259450720543285 53.41229894872326
v 8.27173912556793 53.41950099205024
v 8.292816592815798 53.440496998430085
v 8.315114775928315 53.474920904797976
v 8.32048586720417 53.50922263603209
v 8.291514516765393 53.52936429137222
v 8.25220788300211 53.5230981095216
v 8.2312117795166 53.52521385086891
v 8.23316491468852 53.53986244302865
v 8.24170983263261 53.55630118356783
v 8.248871281251478 53.59027727892093
v 8.257334828954288 53.60443752108443
v 8.270681192940813 53.61286052343661
v 8.287608267283659 53.61688871322919
v 8.329356311439474 53.618109373871704
v 8.348480672006122 53.61286052343661
v 8.363291853298893 53.60057186258919
v 8.375498903585354 53.58690027453772
v 8.387705926579962 53.5771345304664
v 8.428070511487784 53.56476475278824
v 8.513438339821436 53.554754844874466
v 8.55209393616895 53.54360571763211
v 8.552093952137115 53.53620035151773
v 8.528168155218717 53.52391170786966
v 8.506195507367947 53.50796130604364
v 8.49000084862074 53.486395598849654
v 8.48389732351971 53.45734271599848
v 8.485036661293387 53.401190589916716
v 8.490896031056762 53.37645092960315
v 8.504405145427059 53.35805900704909
v 8.507334834356284 53.3827986047167
v 8.496755413039455 53.44525799836749
v 8.49756919977311 53.47475809870336
v 8.512868679894362 53.49648663141822
v 8.535817913876857 53.50617109585001
v 8.556651244240411 53.51821532702689
v 8.557203427938987 53.51994095026019
v 8.560904165168747 53.51570013491083
v 8.572996463253194 53.50185105332795
v 8.578267439779273 53.499241086231976
v 8.585553837154228 53.50032659613696
v 8.587414169150613 53.500352156179886
v 8.587879276224834 53.50032659613696
v 8.588344348759843 53.500171342613285
v 8.595010607754698 53.492187309394474
v 8.597491072968767 53.4905853031971
v 8.599506458736878 53.4897327142534
v 8.601056756973044 53.490017015342296
v 8.602813757406235 53.49048212143943
v 8.623587684739435 53.50221268367768
v 8.639090620501436 53.516656345981644
v 8.640640907364975 53.51988603809773
v 8.64188113829527 53.525312001111146
v 8.642656287661854 53.53190080202882
v 8.641881145850325 53.5393164232044
v 8.635214874159466 53.55988347070708
v 8.631494166677292 53.567531518344744
v 8.623587690249918 53.57709191392164
v 8.621107203959784 53.58225931572656
v 8.620177044192166 53.58760806109431
v 8.621727322231783 53.591483568824636
v 8.622967560672533 53.59398993504993
v 8.625293003886615 53.59680635950233
v 8.62823855530869 53.599364254440005
v 8.631804234496725 53.60199984900392
v 8.630874064300164 53.60396362340886
v 8.625292997391679 53.60499698069426
v 8.584313595313565 53.60393773429475
v 8.562454454468137 53.60626303226719
v 8.513413528773848 53.617011852476224
v 8.513037638610463 53.6170967870272
v 8.50831138408643 53.62514868505224
v 8.501231317790792 53.64419182518842
v 8.48707115992962 53.66693756596857
v 8.483897334576548 53.68357985771099
v 8.486094588610769 53.70042540030341
v 8.49219810464645 53.71515521896838
v 8.529633019572943 53.77069748651227
v 8.556162961042894 53.83095943541031
v 8.573252806389364 53.857652177053495
v 8.587575707031997 53.87042863468013
v 8.607106967871195 53.881537189492676
v 8.629242380965215 53.889390323600665
v 8.65186608867184 53.892482910150036
v 8.672699403941193 53.8915874746573
v 8.684580927429268 53.88849521851767
v 8.70915774287211 53.87197492930354
v 8.744639513621893 53.85415266002431
v 8.782481323346227 53.84247478036549
v 8.860687706284466 53.83100021048147
v 8.903575072754917 53.83173258278317
v 8.976247593227422 53.842434002897264
v 9.016286657102608 53.840521580819164
v 9.035004096994294 53.853583006556725
v 9.114512576318992 53.865139204809445
v 9.193614134688758 53.864691549412996
v 9.210703966576837 53.87197492930354
v 9.224294466591232 53.86591217152708
v 9.24073327986134 53.864162647151815
v 9.274668826500314 53.865139204809445
v 9.28337650953859 53.861639869506604
v 9.305349165922028 53.84455001703584
v 9.402679876777677 53.74241761478975
v 9.44288169680261 53.71430071402719
v 9.470957867639557 53.700628824127264
v 9.484711133589409 53.690090230624726
v 9.498383017781125 53.65985760388228
v 9.567067898231523 53.59959535691948
v 9.582367392903505 53.59129477970761
v 9.600922069243763 53.58633044821597
v 9.624766481618044 53.584621610468545
v 9.637217642455933 53.581000047040305
v 9.696625189684333 53.55662661380138
v 9.763971787214775 53.54767952847107
v 9.764706650162946 53.54376037383461
v 9.768427358510547 53.50815538056506
v 9.777264022907307 53.5023158715158
v 9.779331098906157 53.50009403145257
v 9.780726363805977 53.49658003423357
v 9.782431679134126 53.49430619301272
v 9.785222198235427 53.492445739413185
v 9.791423377421811 53.48981033692998
v 9.793748820656333 53.4877949969982
v 9.796074251952998 53.4842809012938
v 9.800725143321522 53.47523768292903
v 9.80475590521179 53.469191535431655
v 9.810647004726695 53.46237008070712
v 9.816693137825323 53.45694393955827
v 9.824444620625933 53.451414784431435
v 9.857207481219703 53.432862978857585
v 9.861238239145134 53.43224280644307
v 9.86511397394737 53.433405552436824
v 9.877516318870713 53.444774385123594
v 9.882787317915039 53.447229057808215
v 9.890848836438177 53.449037667082266
v 9.895706408711002 53.448649948835566
v 9.90004723907125 53.446608840783554
v 9.905473268018877 53.441234548504205
v 9.908108761696017 53.430795850109995
v 9.90872886571508 53.42154560835704
v 9.909348998147253 53.418083462562905
v 9.912914668606875 53.415602967848635
v 9.918960811623709 53.415602967848635
v 9.938804553250222 53.42188154315028
v 9.945005729938586 53.42283761981533
v 9.950018350035844 53.42201087031035
v 9.968466841896385 53.41446618985935
v 9.975288123027175 53.41405267427436
v 9.985365032772991 53.415060442586096
v 10.011306604949379 53.42149419303474
v 10.027894720854981 53.427488425501416
v 10.030375187095569 53.4291937059749
v 10.030840295704342 53.43115766707264
v 10.030685258322093 53.43306959827365
v 10.030065143188411 53.43451657107282
v 10.029600044380867 53.436635157520996
v 10.029445022321749 53.43839225117652
v 10.032390588009317 53.44097618484493
v 10.038746783092991 53.443094839811415
v 10.076005474951375 53.4504327018611
v 10.08313684122471 53.450898031098504
v 10.09910485116219 53.43947742984442
v 10.111197137803021 53.43389639352554
v 10.131402633164202 53.43058923304508
v 10.143081507403569 53.422682742024776
v 10.153571806217439 53.413639159544225
v 10.169849878512741 53.40661111694321
v 10.186541369874229 53.40438908051558
v 10.241576766931198 53.40661111694321
v 10.243747194492977 53.40940186563943
v 10.266071413099612 53.42707519842399
v 10.275993283686002 53.430795850109995
v 10.28534670472852 53.432656044206205
f 1 2 3 4 5 6 7 8 9 10 11 12 13 14 15 16 17 18 19 20 21 22 23 24 25 26 27 28 29 30 31 32 33 34 35 36 37 38 39 40 41 42 43 44 45 46 47 48 49 50 51 52 53 54 55 56 57 58 59 60 61 62 63 64 65 66 67 68 69 70 71 72 73 74 75 76 77 78 79 80 81 82 83 84 85 86 87 88 89 90 91 92 93 94 95 96 97 98 99 100 101 102 103 104 105 106 107 108 109 110 111 112 113 114 115 116 117 118 119 120 121 122 123 124 125 126 127 128 129 130 131 132 133 134 135 136 137 138 139 140 141 142 143 144 145 146 147 148 149 150 151 152 153 154 155 156 157 158 159 160 161 162 163 164 165 166 167 168 169 170 171 172 173 174 175 176 177 178 179 180 181 182 183 184 185 186 187 188 189 190 191 192 193 194 195 196 197 198 199 200 201 202 203 204 205 206 207 208 209 210 211 212 213 214 215 216 217 218 219 220 221 222 223 224 225 226 227 228 229 230 231 232 233 234 235 236 237 238 239 240 241 242 243 244 245 246 247 248 249 250 251 252 253 254 255 256 257 258 259 260 261 262 263 264 265 266 267 268 269 270 271 272 273 274 275 276 277 278 279 280 281 282 283 284 285 286 287 288 289 290 291 292 293 294 295 296 297 298 299 300 301 302 303 304 305 306 307 308 309 310 311 312 313 314 315 316 317 318 319 320 321 322 323 324 325 326 327 328 329 330 331 332 333 334 335 336 337 338 339 340 341 342 343 344 345 346 347 348 349 350 351 352 353 354 355 356 357 358 359 360 361 362 363 364 365 366 367 368 369 370 371 372 373 374 375 376 377 378 379 380 381 382 383 384 385 386 387 388 389 390 391 392 393 394 395 396 397 398 399 400 401 402 403 404 405 406 407 408 409 410 411 412 413 414 415 416 417 418 419 420 421 422 423 424 425 426 427 428 429 430 431 432 433 434 435 436 437 438 439 440 441 442 443 444 445 446 447 448 449 450 451 452 453 454 455 456 457 458 459 460 461 462 463 464 465 466 467 468 469 470 471 472 473 474 475 476 477 478 479 480 481 482 483 484 485 486 487 488 489 490 491 492 493 494 495 496 497 498 499 500 501 502 503 504 505 506 507 508 509 510 511 512 513 514 515 516 517 518 519 520 521 522 523 524 525 526 527 528 529 530 531 532 533 534 535 536 537 538 539 540 541 542 543 544 545 546 547 548 549 550 551 552 553 554 555 556 557 558 559 560 561 562 563 564 565 566 567 568 569 570 571 572 573 574 575 576 577 578 579 580 581 582 583 584 585 586 587 588 589 590 591 592 593 594 595 596 597 598 599 600 601 602 603 604 605 606 607 608 609 610 611 612 613 614 615 616 617 618 619 620 621 622 623 624 625 626 627 628 629 630 631 632 633 634 635 636 637 638 639 640 641 642 643 644 645 646 647 648 649 650 651 652 653 654 655 656 657 658 659 660 661 662 663 664 665 666 667 668 669 670 671 672 673 674 675 676 677 678 679 680 681 682 683 684 685 686 687 688 689 690 691 692 693 694 695 696 697 698 699 700 701 702 703 704 705 706 707 708 709 710 711 712 713 714 715 716 717 718 719 720 721 722 723 724 725 726 727 728 729 730 731 732 733 734 735 736 737 738 739 740 741 742 743 744 745 746 747 748 749 750 751 752 753 754 755 756 757 758 759 760 761 762 763 764 765 766 767 768 769 770 771 772 773 774 775 776 777 778 779 780 781 782 783 784 785 786 787 788 789 790 791 792 793 794 795 796 797 798 799 800 801 802 803 804 805 806 807 808 809 810 811 812 813 814 815 816 817 818 819 820 821 822 823 824 825 826 827 828 829 830 831 832 833 834 835 836 837 838 839 840 841 842 843 844 845 846 847 848 849 850 851 852 853 854 855 856 857 858 859 860 861 862 863 864 865 866 867 868 869 870 871 872 873 874 875 876 877 878 879 880 881 882 883 884 885 886 887 888 889 890 891 892 893 894 895 896 897 898 899 900 901 902 903 904 905 906 907 908 909 910 911 912 913 914 915 916 917 918 919 920 921 922 923 924 925 926 927 928 929 930 931 932 933 934 935 936 937 938 939 940 941 942 943 944 945 946 947 948 949 950 951 952 953 954 955 956 957 958 959 960 961 962 963 964 965 966 967 968 969 970 971 972 973 974 975 976 977 978 979 980 981 982 983 984 985 986 987 988 989 990 991 992 993 994 995 996 997 998 999 1000 1001 1002 1003 1004 1005 1006 1007 1008 1009 1010 1011 1012 1013 1014 1015 1016 1017 1018 1019 1020 1021 1022 1023 1024 1025 1026 1027 1028 1029 1030 1031 1032 1033 1034 1035 1036 1037 1038 1039 1040 1041 1042 1043 1044 1045 1046 1047 1048 1049 1050 1051 1052 1053 1054 1055 1056 1057 1058 1059 1060 1061 1062 1063 1064 1065 1066 1067 1068 1069 1070 1071 1072 1073 1074 1075 1076 1077 1078 1079 1080 1081 1082 1083 1084 1085 1086 1087 1088 1089 1090 1091 1092 1093 1094 1095 1096 1097 1098 1099 1100 1101 1102 1103 1104 1105 1106 1107 1108 1109 1110 1111 1112 1113 1114 1115 1116 1117 1118 1119 1120 1121 1122 1123 1124 1125 1126 1127 1128 1129 1130 1131 1132 1133 1134 1135 1136 1137 1138 1139 1140 1141 1142 1143 1144 1145 1146 1147 1148 1149 1150 1151 1152 1153 1154 1155 1156 1157 1158 1159 1160 1161 1162 1163 1164 1165 1166 1167 1168 1169 1170 1171 1172 1173 1174 1175 1176 1177 1178 1179 1180 1181 1182 1183 1184 1185 1186 1187 1188 1189 1190 1191 1192 1193 1194 1195 1196 1197 1198 1199 1200 1201 1202 1203 1204 1205 1206 1207 1208 1209 1210 1211 1212 1213 1214 1215 1216 1217 1218 1219 1220 1221 1222 1223 1224 1225 1226 1227 1228 1229 1230 1231 1232 1233 1234 1235 1236 1237 1238 1239 1240 1241 1242 1243 1244 1245 1246 1247 1248 1249 1250 1251 1252 1253 1254 1255 1256 1257 1258 1259 1260 1261 1262 1263 1264 1265 1266 1267 1268 1269 1270 1271 1272 1273 1274 1275 1276 1277 1278 1279 1280 1281 1282 1283 1284 1285 1286 1287 1288 1289 1290 1291 1292 1293 1294 1295 1296 1297 1298 1299 1300 1301 1302 1303 1304 1305 1306 1307 1308 1309 1310 1311 1312 1313 1314 1315 1316 1317 1318 1319 1320 1321 1322 1323 1324 1325 1326 1327 1328 1329 1330 1331 1332 1333 1334 1335 1336 1337 1338 1339 1340 1341 1342 1343 1344 1345 1346 1347 1348 1349 1350 1351 1352 1353 1354 1355 1356 1357 1358 1359 1360 1361 1362 1363 1364 1365 1366 1367 1368 1369 1370 1371 1372 1373 1374 1375 1376 1377 1378 1379 1380 1381 1382 1383 1384 1385 1386 1387 1388 1389 1390 1391 1392 1393 1394 1395 1396 1397 1398 1399 1400 1401 1402 1403 1404 1405 1406 1407 1408 1409 1410 1411 1412 1413 1414 1415 1416 1417 1418 1419 1420 1421 1422 1423 1424 1425 1426 1427 1428 1429 1430 1431 1432 1433 1434 1435 1436 1437 1438 1439 1440 1441 1442 1443 1444 1445 1446 1447 1448 1449 1450 1451 1452 1453 1454 1455 1456 1457 1458 1459 1460 1461 1462 1463 1464 1465 1466 1467 1468 1469 1470 1471 1472 1473 1474 1475 1476 1477 1478
v 8.564469842987263 53.21179110052056
v 8.560594111680565 53.212566254745546
v 8.529536566737441 53.22465841489475
v 8.518684523338655 53.22610546387491
v 8.496050236428822 53.22403825421541
v 8.501372926518275 53.21706220779792
v 8.504576857823178 53.211067625922155
v 8.513000113341368 53.199750437561654
v 8.554444621598304 53.18959616478723
v 8.578060749330259 53.179777616793345
v 8.589222845322098 53.17897643871364
v 8.611030310880766 53.18006179475706
v 8.617231473845761 53.1768577270344
v 8.631494176847452 53.159572071711544
v 8.633354527186079 53.14140779438698
v 8.63381960786887 53.138978894660234
v 8.63583498513037 53.133914554094865
v 8.638005404382744 53.13029733519268
v 8.653818389660085 53.11572453809465
v 8.692937443164078 53.08810340150098
v 8.699603709959923 53.085855579537466
v 8.701774115197187 53.083426712627855
v 8.702704294599943 53.07986108889359
v 8.702394234744652 53.05435876032211
v 8.702704293533488 53.05273094635823
v 8.70254927583077 53.05169759033544
v 8.702394233412111 53.05112896338188
v 8.703944540129484 53.05048319903181
v 8.704874701533987 53.04955281078439
v 8.719499133455594 53.04792503510468
v 8.758566528462005 53.05211099508851
v 8.768333369304697 53.054643078095374
v 8.771795690834276 53.054643078095374
v 8.777066689883371 53.05335121436632
v 8.824660673560704 53.035005930508824
v 8.834479196545166 53.033533165371196
v 8.844091010458124 53.03319724543653
v 8.858043651936395 53.03567777687058
v 8.863159611372847 53.03727963876818
v 8.865950147872857 53.03973440313334
v 8.865950154517446 53.04265421638351
v 8.865485064274056 53.0453930353362
v 8.865640099794366 53.04686588589927
v 8.865950143171368 53.04751163881946
v 8.914525994202423 53.02461903833227
v 8.92289757436863 53.02743537568886
v 8.9576758243654 53.04260258248966
v 8.972713660297638 53.05257603707851
v 8.974108919079567 53.0563741820025
v 8.975349153037438 53.06187772893557
v 8.976744409008331 53.075623547526305
v 8.979069860965929 53.0816698723015
v 8.981395291643164 53.08593304679162
v 8.988216586957337 53.09159169992361
v 8.98992191506677 53.09360717444496
v 8.988216584734195 53.09717272365565
v 8.986046173415199 53.10006658966462
v 8.961551540617677 53.11582784291705
v 8.95783084416457 53.121925754914486
v 8.958295935002187 53.123295219705156
v 8.96046635208864 53.12606000444829
v 8.972093545927857 53.13246784780101
v 8.97519411745854 53.134689725799774
v 8.975349152787462 53.137015258646265
v 8.973023717164185 53.13954745177928
v 8.949459262440318 53.15603220503202
v 8.939382365149523 53.16182007817821
v 8.936230087332634 53.1628016986754
v 8.932974491615415 53.162982839048446
v 8.928478627930224 53.161122298843225
v 8.92630822634666 53.15933958591589
v 8.923982792583109 53.156600809874085
v 8.919331894053963 53.149779231863036
v 8.917781617115155 53.14693726405171
v 8.916696412613065 53.14396587202522
v 8.915766230133627 53.142337972076064
v 8.914370962373177 53.14063259706586
v 8.912355590996409 53.13934081809389
v 8.909410032579068 53.13851397046386
v 8.903984007569468 53.13760963924942
v 8.894992299143777 53.138849748943485
v 8.860524124836232 53.14926262203331
v 8.840680381230092 53.157944361713014
v 8.82574587333482 53.167142496544855
v 8.823885529722808 53.16807279210804
v 8.811638216505328 53.16957141807435
v 8.783732950342017 53.16900309193595
v 8.778616988442213 53.170269226457904
v 8.756551135934243 53.17871809647644
v 8.751435184408862 53.181457171047
v 8.749264774001324 53.183885948932726
v 8.749884876746737 53.18548771693217
v 8.750194946389657 53.1868831305655
v 8.74988487596656 53.188329909596
v 8.748954712633891 53.18959616478723
v 8.747559441642116 53.19075876982659
v 8.745544055364942 53.191611351094245
v 8.733141726312539 53.192670938799516
v 8.710455756502748 53.19176636625553
v 8.706580027991363 53.19112047053238
v 8.704719683938263 53.189932027780245
v 8.703634482137526 53.189518658021726
v 8.701153995514023 53.18910497403888
v 8.690301948730346 53.18843325135047
v 8.676814408533957 53.19037123407242
v 8.617851602048598 53.20484068359628
v 8.590204710033905 53.215356834537346
v 8.585088743964743 53.21540851230377
v 8.566330194962047 53.21184277737651
#f 1479 1480 1481 1482 1483 1484 1485 1486 1487 1488 1489 1490 1491 1492 1493 1494 1495 1496 1497 1498 1499 1500 1501 1502 1503 1504 1505 1506 1507 1508 1509 1510 1511 1512 1513 1514 1515 1516 1517 1518 1519 1520 1521 1522 1523 1524 1525 1526 1527 1528 1529 1530 1531 1532 1533 1534 1535 1536 1537 1538 1539 1540 1541 1542 1543 1544 1545 1546 1547 1548 1549 1550 1551 1552 1553 1554 1555 1556 1557 1558 1559 1560 1561 1562 1563 1564 1565 1566 1567 1568 1569 1570 1571 1572 1573 1574 1575 1576 1577 1578 1579 1580 1581 1582 1583 1584 1585 1586 1587
f 1587 1586 1585 1584 1583 1582 1581 1580 1579 1578 1577 1576 1575 1574 1573 1572 1571 1570 1569 1568 1567 1566 1565 1564 1563 1562 1561 1560 1559 1558 1557 1556 1555 1554 1553 1552 1551 1550 1549 1548 1547 1546 1545 1544 1543 1542 1541 1540 1539 1538 1537 1536 1535 1534 1533 1532 1531 1530 1529 1528 1527 1526 1525 1524 1523 1522 1521 1520 1519 1518 1517 1516 1515 1514 1513 1512 1511 1510 1509 1508 1507 1506 1505 1504 1503 1502 1501 1500 1499 1498 1497 1496 1495 1494 1493 1492 1491 1490 1489 1488 1487 1486 1485 1484 1483 1482 1481 1480 1479